<svg xmlns="http://www.w3.org/2000/svg" xmlns:xlink="http://www.w3.org/1999/xlink" width="492" zoomAndPan="magnify" viewBox="0 0 369 219.75" height="293" preserveAspectRatio="xMidYMid meet" version="1.0"><defs><clipPath id="dfb6273d8a"><path d="M 314 212 L 318 212 L 318 213.773438 L 314 213.773438 Z M 314 212 " clip-rule="nonzero"/></clipPath><clipPath id="e772479704"><path d="M 36 197 L 342 197 L 342 213.773438 L 36 213.773438 Z M 36 197 " clip-rule="nonzero"/></clipPath><clipPath id="bc57b09229"><path d="M 287 196.542969 L 289 196.542969 L 289 198 L 287 198 Z M 287 196.542969 " clip-rule="nonzero"/></clipPath><clipPath id="7e0bd36ebb"><path d="M 293 196.542969 L 295 196.542969 L 295 197 L 293 197 Z M 293 196.542969 " clip-rule="nonzero"/></clipPath><clipPath id="30289c5ce9"><path d="M 281 196.542969 L 284 196.542969 L 284 197 L 281 197 Z M 281 196.542969 " clip-rule="nonzero"/></clipPath><clipPath id="71c7130777"><path d="M 141 148 L 313 148 L 313 196.757812 L 141 196.757812 Z M 141 148 " clip-rule="nonzero"/></clipPath><clipPath id="651e935651"><path d="M 204 22.957031 L 260 22.957031 L 260 99 L 204 99 Z M 204 22.957031 " clip-rule="nonzero"/></clipPath><clipPath id="2cfcccbd36"><path d="M 55.484375 66 L 177 66 L 177 166 L 55.484375 166 Z M 55.484375 66 " clip-rule="nonzero"/></clipPath><clipPath id="9f6cdde598"><path d="M 189 22.957031 L 247 22.957031 L 247 147 L 189 147 Z M 189 22.957031 " clip-rule="nonzero"/></clipPath></defs><g clip-path="url(#dfb6273d8a)"><path fill="#dbac2c" d="M 314.542969 212.128906 C 314.402344 212.34375 314.402344 212.628906 314.683594 212.988281 C 314.894531 213.203125 315.175781 213.34375 315.460938 213.488281 C 316.164062 213.773438 316.445312 213.203125 316.800781 212.914062 C 316.871094 212.84375 317.011719 212.773438 317.082031 212.773438 C 316.304688 212.128906 315.460938 211.914062 314.542969 212.128906 Z M 314.542969 212.128906 " fill-opacity="1" fill-rule="nonzero"/></g><g clip-path="url(#e772479704)"><path fill="#dbac2c" d="M 340.425781 202.332031 C 340.710938 201.761719 340.640625 201.191406 339.863281 201.476562 C 338.945312 201.761719 338.242188 201.40625 337.324219 201.117188 C 335.347656 200.402344 333.234375 199.472656 331.1875 199.472656 C 329 199.472656 327.378906 198.332031 325.476562 197.972656 C 323.21875 197.542969 320.75 197.328125 318.632812 197.902344 C 316.445312 198.472656 314.261719 197.472656 312.425781 198.257812 C 310.097656 199.257812 307.773438 198.617188 305.585938 198.402344 C 303.539062 198.1875 301.566406 199.472656 299.449219 198.1875 C 298.8125 197.757812 297.261719 199.117188 296.132812 199.257812 C 294.371094 199.472656 292.535156 199.617188 290.84375 199.257812 C 288.726562 198.757812 286.683594 198.902344 284.496094 199.046875 C 278.996094 199.332031 273.492188 199.472656 267.992188 199.546875 C 265.03125 199.617188 262.136719 199.257812 259.175781 199.402344 C 252.40625 199.832031 245.632812 199.617188 238.933594 199.6875 C 233.007812 199.046875 227.085938 199.761719 221.160156 200.046875 C 217 200.261719 212.835938 199.472656 208.746094 200.902344 C 207.335938 200.476562 205.996094 200.546875 204.515625 200.546875 C 197.8125 200.761719 191.042969 200.832031 184.34375 200.902344 C 181.519531 200.902344 178.699219 200.617188 175.949219 201.476562 C 174.257812 202.046875 172.492188 201.90625 170.730469 201.261719 C 168.824219 200.546875 166.921875 200.761719 165.15625 201.90625 C 164.664062 202.046875 164.101562 202.332031 163.605469 202.191406 C 159.023438 201.046875 154.4375 201.476562 149.851562 202.191406 C 149.007812 202.332031 147.878906 202.691406 147.242188 202.332031 C 145.269531 201.261719 143.433594 202.191406 141.601562 202.191406 C 139.625 202.191406 137.722656 201.976562 135.746094 202.476562 C 134.757812 202.761719 133.628906 202.835938 132.574219 202.691406 C 129.046875 202.332031 125.519531 202.476562 121.992188 202.691406 C 117.195312 202.90625 112.402344 202.621094 107.605469 203.121094 C 101.257812 203.835938 94.839844 203.976562 88.492188 203.976562 C 75.160156 203.976562 61.898438 205.335938 48.570312 205.910156 C 47.160156 205.980469 45.394531 205.835938 44.410156 206.550781 C 42.152344 208.269531 39.542969 207.910156 36.085938 208.769531 C 52.449219 209.125 67.613281 210.628906 82.917969 209.914062 C 89.972656 209.554688 97.09375 210.125 104.148438 210.339844 C 106.828125 210.414062 109.507812 210.84375 112.117188 210.699219 C 118.324219 210.484375 124.460938 209.769531 130.667969 210.84375 C 132.007812 211.054688 133.558594 210.984375 134.898438 210.699219 C 136.875 210.339844 138.851562 210.484375 140.753906 210.84375 C 142.941406 211.34375 144.84375 209.339844 147.03125 210.484375 C 150.910156 209.984375 154.789062 211.199219 158.667969 210.054688 C 164.242188 209.984375 169.8125 211.558594 175.457031 210.414062 C 177.359375 211.34375 179.335938 210.269531 181.167969 210.414062 C 183.214844 210.554688 185.257812 210.769531 187.375 210.84375 C 190.265625 210.914062 192.945312 210.125 195.769531 210.054688 C 199.71875 209.914062 203.597656 212.058594 207.617188 210.199219 C 210.226562 211.34375 212.835938 210.269531 215.445312 210.125 C 216.855469 210.054688 218.480469 209.839844 219.609375 210.484375 C 221.652344 211.628906 223.628906 211.128906 225.671875 210.914062 C 226.378906 210.84375 227.15625 210.269531 227.71875 210.484375 C 231.105469 211.769531 234.277344 210.125 237.59375 210.054688 C 241.191406 211.128906 244.789062 211.558594 248.453125 210.199219 C 251.347656 209.769531 254.238281 210.769531 257.128906 210.199219 C 257.90625 210.054688 258.824219 210.554688 259.667969 210.769531 C 260.515625 210.914062 261.433594 211.269531 262.277344 211.128906 C 264.816406 210.628906 267.214844 211.484375 269.683594 211.414062 C 272.082031 211.34375 274.480469 210.984375 276.949219 211.199219 C 279.207031 211.414062 281.605469 211.84375 283.71875 211.628906 C 286.1875 211.414062 288.726562 211.769531 291.125 211.414062 C 294.863281 210.84375 298.53125 210.699219 302.269531 211.199219 C 306.078125 211.628906 310.097656 210.339844 313.765625 212.484375 C 314.046875 212.34375 314.332031 212.273438 314.613281 212.199219 C 314.683594 211.984375 314.894531 211.84375 315.035156 211.769531 C 315.460938 211.558594 316.023438 211.558594 316.515625 211.558594 C 316.800781 211.558594 317.152344 211.769531 317.363281 211.984375 C 317.859375 212.558594 317.503906 212.699219 317.152344 212.84375 C 317.292969 212.988281 317.433594 213.058594 317.574219 213.203125 C 317.785156 213.414062 318.632812 213.058594 318.984375 212.773438 C 319.691406 212.128906 320.253906 211.769531 321.3125 211.914062 C 323.570312 212.128906 325.757812 211.914062 328.015625 212.484375 C 331.1875 213.273438 334.292969 212.34375 337.394531 211.414062 C 338.3125 211.128906 339.085938 210.484375 338.875 209.484375 C 338.3125 206.980469 340.992188 207.554688 341.695312 206.265625 C 340.710938 204.980469 339.511719 203.976562 340.425781 202.332031 Z M 170.589844 207.695312 C 170.378906 207.554688 170.234375 207.339844 170.023438 207.195312 C 170.234375 207.339844 170.378906 207.554688 170.589844 207.695312 Z M 246.480469 206.550781 C 246.199219 206.695312 245.914062 206.839844 245.703125 206.980469 C 245.914062 206.839844 246.199219 206.695312 246.480469 206.550781 Z M 201.480469 207.050781 C 202.117188 206.980469 202.75 206.980469 203.457031 206.910156 C 202.679688 206.980469 202.117188 207.050781 201.480469 207.050781 Z M 189.773438 207.554688 C 189.5625 207.410156 189.351562 207.195312 189.207031 207.125 C 189.421875 207.195312 189.632812 207.410156 189.773438 207.554688 Z M 189.773438 207.554688 " fill-opacity="1" fill-rule="nonzero"/></g><g clip-path="url(#bc57b09229)"><path fill="#dbac2c" d="M 287.527344 197.113281 C 287.953125 197.1875 288.445312 197.113281 288.941406 197.113281 C 288.941406 196.898438 288.941406 196.6875 288.871094 196.6875 C 288.375 196.613281 287.953125 196.542969 287.457031 196.613281 C 287.035156 196.6875 287.035156 196.972656 287.527344 197.113281 Z M 287.527344 197.113281 " fill-opacity="1" fill-rule="nonzero"/></g><g clip-path="url(#7e0bd36ebb)"><path fill="#dbac2c" d="M 294.371094 196.6875 C 294.230469 196.613281 294.089844 196.613281 293.949219 196.542969 C 293.804688 196.542969 293.664062 196.613281 293.523438 196.613281 C 293.734375 196.6875 293.878906 196.828125 294.089844 196.828125 C 294.160156 196.898438 294.230469 196.757812 294.371094 196.6875 Z M 294.371094 196.6875 " fill-opacity="1" fill-rule="nonzero"/></g><g clip-path="url(#30289c5ce9)"><path fill="#dbac2c" d="M 283.015625 196.757812 C 282.875 196.6875 282.734375 196.542969 282.664062 196.542969 C 282.378906 196.542969 282.027344 196.613281 281.746094 196.613281 C 281.746094 196.6875 281.816406 196.828125 281.816406 196.828125 C 282.238281 196.828125 282.59375 196.757812 283.015625 196.757812 Z M 283.015625 196.757812 " fill-opacity="1" fill-rule="nonzero"/></g><g clip-path="url(#71c7130777)"><path fill="#8047f8" d="M 264.699219 172.652344 C 264.699219 159.363281 275.441406 148.542969 288.75 148.542969 C 302.003906 148.542969 312.796875 159.308594 312.796875 172.652344 C 312.796875 185.941406 302.054688 196.757812 288.75 196.757812 C 275.492188 196.757812 264.699219 185.941406 264.699219 172.652344 Z M 165.582031 196.757812 C 178.839844 196.757812 189.628906 185.992188 189.628906 172.652344 C 189.628906 159.363281 178.890625 148.542969 165.582031 148.542969 C 152.273438 148.542969 141.535156 159.308594 141.535156 172.652344 C 141.535156 185.941406 152.324219 196.757812 165.582031 196.757812 Z M 165.582031 196.757812 " fill-opacity="1" fill-rule="nonzero"/></g><path fill="#dbac2c" d="M 239.574219 146.84375 C 239.574219 146.84375 237.3125 152.769531 243.273438 152.769531 C 256.734375 152.769531 256.632812 160.648438 256.632812 160.648438 L 227.601562 160.648438 L 231.199219 146.84375 Z M 239.574219 146.84375 " fill-opacity="1" fill-rule="nonzero"/><path fill="#dbac2c" d="M 258.433594 177.441406 C 253.292969 163.945312 258.484375 148.390625 271.328125 140.867188 C 284.175781 133.347656 300.257812 136.492188 309.457031 147.566406 Z M 258.433594 177.441406 " fill-opacity="1" fill-rule="nonzero"/><path fill="#8047f8" d="M 209.875 130.773438 C 198.929688 150.246094 213.265625 160.648438 213.265625 160.648438 L 243.632812 160.648438 C 247.4375 159.207031 255.863281 150.65625 261.359375 137.984375 C 266.859375 125.3125 247.847656 85.542969 247.847656 85.542969 C 255.863281 75.398438 276.777344 80.03125 276.777344 80.03125 L 276.777344 101.617188 L 264.699219 98.21875 L 282.015625 133.761719 L 249.953125 172.652344 L 137.734375 172.652344 L 160.957031 130.773438 Z M 209.875 130.773438 " fill-opacity="1" fill-rule="nonzero"/><path fill="#574f4d" d="M 276.777344 172.652344 C 276.777344 166.007812 282.121094 160.648438 288.75 160.648438 C 295.375 160.648438 300.71875 166.007812 300.71875 172.652344 C 300.71875 179.296875 295.375 184.65625 288.75 184.65625 C 282.121094 184.65625 276.777344 179.296875 276.777344 172.652344 Z M 165.582031 184.65625 C 172.210938 184.65625 177.554688 179.296875 177.554688 172.652344 C 177.554688 166.007812 172.210938 160.648438 165.582031 160.648438 C 158.953125 160.648438 153.609375 166.007812 153.609375 172.652344 C 153.609375 179.296875 158.953125 184.65625 165.582031 184.65625 Z M 165.582031 184.65625 " fill-opacity="1" fill-rule="nonzero"/><path fill="#dbac2c" d="M 217.890625 130.773438 L 149.960938 130.773438 L 149.960938 117.6875 L 217.890625 117.6875 Z M 169.382812 137.367188 C 151.09375 137.367188 131.824219 153.179688 131.824219 172.652344 L 198.054688 172.652344 C 198.054688 148.75 193.636719 137.367188 169.382812 137.367188 Z M 235.925781 83.433594 C 230.992188 80.910156 226.984375 55.925781 212.339844 56.800781 C 197.644531 57.625 191.324219 88.070312 189.628906 96.105469 L 212.390625 98.21875 C 214.089844 89.769531 219.125 78.953125 219.125 78.953125 C 219.125 78.953125 222.050781 93.527344 229.453125 94.816406 C 233.769531 95.539062 241.9375 96.570312 248.050781 97.289062 L 249.542969 86.367188 C 244.558594 85.800781 238.597656 84.773438 235.925781 83.433594 Z M 235.925781 83.433594 " fill-opacity="1" fill-rule="nonzero"/><g clip-path="url(#651e935651)"><path fill="#574f4d" d="M 233.921875 37.742188 C 233.921875 45.933594 227.292969 52.527344 219.175781 52.527344 C 211.003906 52.527344 204.429688 45.878906 204.429688 37.742188 C 204.429688 29.601562 211.003906 22.957031 219.175781 22.957031 C 227.292969 22.957031 233.921875 29.601562 233.921875 37.742188 Z M 257.558594 87.246094 C 257.558594 87.246094 253.960938 86.988281 249.59375 86.421875 L 248.105469 97.339844 C 252.523438 97.855469 255.863281 98.21875 255.863281 98.21875 C 260.078125 94.40625 260.691406 93.582031 257.558594 87.246094 Z M 257.558594 87.246094 " fill-opacity="1" fill-rule="nonzero"/></g><g clip-path="url(#2cfcccbd36)"><path fill="#574f4d" d="M 176.117188 117.6875 L 122.984375 117.6875 L 122.984375 66.074219 L 176.117188 66.074219 Z M 142.871094 133.761719 C 142.871094 133.039062 142.253906 132.421875 141.535156 132.421875 L 100.632812 132.421875 C 99.914062 132.421875 99.296875 133.039062 99.296875 133.761719 C 99.296875 134.480469 99.914062 135.097656 100.632812 135.097656 L 141.535156 135.097656 C 142.304688 135.097656 142.871094 134.480469 142.871094 133.761719 Z M 129.410156 144.730469 C 129.410156 144.011719 128.792969 143.394531 128.074219 143.394531 L 66.054688 143.394531 C 65.332031 143.394531 64.71875 144.011719 64.71875 144.730469 C 64.71875 145.453125 65.332031 146.070312 66.054688 146.070312 L 128.074219 146.070312 C 128.792969 146.070312 129.410156 145.503906 129.410156 144.730469 Z M 142.871094 163.792969 C 142.871094 163.070312 142.253906 162.453125 141.535156 162.453125 L 90.511719 162.453125 C 89.792969 162.453125 89.175781 163.070312 89.175781 163.792969 C 89.175781 164.511719 89.792969 165.132812 90.511719 165.132812 L 141.535156 165.132812 C 142.304688 165.132812 142.871094 164.511719 142.871094 163.792969 Z M 154.945312 155.652344 C 154.945312 154.933594 154.328125 154.3125 153.609375 154.3125 L 107.777344 154.3125 C 107.058594 154.3125 106.441406 154.933594 106.441406 155.652344 C 106.441406 156.375 107.058594 156.992188 107.777344 156.992188 L 153.609375 156.992188 C 154.378906 156.992188 154.945312 156.375 154.945312 155.652344 Z M 117.640625 105.429688 C 117.640625 104.707031 117.023438 104.089844 116.304688 104.089844 L 57.214844 104.089844 C 56.496094 104.089844 55.878906 104.707031 55.878906 105.429688 C 55.878906 106.148438 56.496094 106.769531 57.214844 106.769531 L 116.253906 106.769531 C 117.023438 106.769531 117.640625 106.148438 117.640625 105.429688 Z M 115.226562 93.582031 C 115.226562 92.859375 114.609375 92.242188 113.890625 92.242188 L 74.890625 92.242188 C 74.171875 92.242188 73.554688 92.859375 73.554688 93.582031 C 73.554688 94.300781 74.171875 94.921875 74.890625 94.921875 L 113.890625 94.921875 C 114.609375 94.921875 115.226562 94.300781 115.226562 93.582031 Z M 115.226562 93.582031 " fill-opacity="1" fill-rule="nonzero"/></g><g clip-path="url(#9f6cdde598)"><path fill="#8047f8" d="M 243.171875 32.179688 L 204.429688 38.460938 C 204.429688 38.203125 204.375 38 204.375 37.742188 C 204.375 29.601562 211.003906 22.957031 219.175781 22.957031 C 225.390625 22.957031 230.683594 26.820312 232.84375 32.230469 L 242.914062 30.632812 Z M 189.628906 96.105469 C 187.933594 104.140625 190.039062 117.6875 198.054688 117.6875 L 217.890625 117.6875 C 229.707031 117.6875 233.101562 129.125 228.011719 146.84375 L 241.0625 146.84375 C 247.382812 122.324219 249.492188 115.113281 241.0625 110.890625 C 232.636719 106.664062 210.695312 106.664062 212.390625 98.21875 Z M 189.628906 96.105469 " fill-opacity="1" fill-rule="nonzero"/></g></svg>