<svg xmlns="http://www.w3.org/2000/svg" xmlns:xlink="http://www.w3.org/1999/xlink" width="500" zoomAndPan="magnify" viewBox="0 0 375 374.999991" height="500" preserveAspectRatio="xMidYMid meet" version="1.0"><defs><clipPath id="392622ad7d"><path d="M 22.839844 338 L 299 338 L 299 375 L 22.839844 375 Z M 22.839844 338 " clip-rule="nonzero"/></clipPath><clipPath id="84cb83d106"><path d="M 22.839844 174 L 346 174 L 346 357 L 22.839844 357 Z M 22.839844 174 " clip-rule="nonzero"/></clipPath></defs><g clip-path="url(#392622ad7d)"><path fill="#8047f8" d="M 298.4375 338.308594 C 298.4375 358.515625 236.777344 374.832031 160.675781 374.832031 C 84.574219 374.832031 22.839844 358.441406 22.839844 338.308594 " fill-opacity="1" fill-rule="nonzero"/></g><g clip-path="url(#84cb83d106)"><path fill="#8047f8" d="M 334.953125 215.714844 C 325.226562 205.835938 310.933594 202.46875 296.492188 205.238281 C 297.765625 195.207031 298.4375 184.878906 298.4375 174.328125 L 22.839844 174.328125 C 22.839844 274.992188 84.5 356.570312 160.601562 356.570312 C 200.933594 356.570312 237.226562 333.667969 262.371094 297.144531 C 280.179688 309.121094 307.492188 304.777344 326.875 285.769531 C 348.5 264.589844 352.089844 233.152344 334.953125 215.714844 Z M 331.886719 252.988281 C 330.613281 264.214844 324.929688 275.214844 315.949219 284.046875 C 306.96875 292.878906 295.820312 298.34375 284.59375 299.390625 C 276.738281 300.136719 269.554688 298.640625 263.792969 295.125 C 278.234375 273.570312 288.933594 247.375 294.324219 218.484375 C 295.371094 218.335938 296.492188 218.1875 297.539062 218.035156 C 308.089844 217.0625 317.371094 220.054688 323.804688 226.566406 C 330.164062 233.078125 333.085938 242.507812 331.886719 252.988281 Z M 331.886719 252.988281 " fill-opacity="1" fill-rule="nonzero"/></g><path fill="#8047f8" d="M 161.351562 1.289062 C 161.125 0.84375 160.675781 0.691406 160.304688 0.84375 C 159.929688 0.917969 159.554688 1.214844 159.253906 1.441406 C 158.957031 1.738281 158.65625 2.039062 158.507812 2.414062 C 158.433594 2.5625 158.355469 2.789062 158.28125 2.9375 L 158.058594 3.535156 C 157.382812 5.257812 156.785156 6.980469 156.261719 8.699219 C 155.214844 12.144531 154.464844 15.585938 154.09375 19.027344 C 153.71875 22.398438 153.867188 25.765625 154.464844 28.832031 C 154.691406 29.582031 154.765625 30.328125 155.066406 31.078125 L 155.4375 32.199219 L 155.886719 33.25 C 156.410156 34.671875 157.234375 36.019531 157.984375 37.363281 C 158.804688 38.710938 159.777344 40.058594 160.828125 41.480469 L 164.117188 45.746094 C 165.242188 47.246094 166.4375 48.816406 167.5625 50.460938 C 168.683594 52.183594 169.730469 53.90625 170.703125 55.703125 C 172.648438 59.367188 174.222656 63.261719 175.195312 67.453125 C 176.242188 71.644531 176.539062 76.207031 176.015625 80.625 C 175.71875 82.871094 175.269531 84.964844 174.746094 87.0625 C 174.144531 89.15625 173.398438 91.101562 172.648438 93.046875 C 171.003906 96.867188 169.058594 100.308594 167.039062 103.601562 C 165.015625 106.894531 162.996094 109.886719 161.050781 112.882812 C 160.078125 114.378906 159.179688 115.875 158.28125 117.371094 C 157.382812 118.867188 156.5625 120.292969 155.886719 121.789062 C 155.140625 123.285156 154.464844 124.78125 153.941406 126.277344 C 153.417969 127.773438 152.96875 129.347656 152.59375 130.84375 C 151.996094 133.914062 151.921875 137.128906 152.519531 140.347656 C 152.820312 141.921875 153.269531 143.492188 153.941406 144.988281 C 154.617188 146.484375 155.4375 147.90625 156.488281 149.179688 C 156.710938 149.554688 157.085938 149.777344 157.308594 150.078125 C 157.460938 150.226562 157.609375 150.378906 157.757812 150.527344 L 158.207031 150.902344 C 158.804688 151.425781 159.703125 152.023438 160.453125 152.773438 C 161.199219 153.519531 161.800781 154.269531 162.25 155.242188 C 162.472656 155.691406 162.621094 156.289062 162.546875 156.8125 C 162.472656 157.339844 162.097656 157.789062 161.722656 158.011719 C 162.023438 157.636719 162.097656 157.1875 162.023438 156.8125 C 161.949219 156.441406 161.722656 156.140625 161.425781 155.839844 C 160.828125 155.242188 160.078125 154.792969 159.328125 154.417969 C 158.507812 154.046875 157.832031 153.820312 156.785156 153.445312 L 156.113281 153.148438 C 155.886719 153.074219 155.664062 152.921875 155.4375 152.773438 C 154.988281 152.546875 154.539062 152.324219 154.09375 152.023438 C 150.574219 149.777344 147.957031 146.261719 146.234375 142.445312 C 145.410156 140.5 144.738281 138.476562 144.363281 136.457031 C 143.988281 134.363281 143.765625 132.265625 143.765625 130.09375 C 143.765625 127.925781 144.066406 125.90625 144.4375 123.808594 C 144.8125 121.789062 145.335938 119.765625 146.011719 117.820312 C 147.28125 113.929688 148.929688 110.335938 150.726562 106.96875 C 152.445312 103.527344 154.316406 100.308594 155.960938 97.238281 C 159.253906 91.027344 162.023438 84.964844 162.699219 79.128906 C 163.371094 73.441406 161.949219 67.300781 159.328125 61.316406 C 158.65625 59.816406 157.910156 58.320312 157.085938 56.898438 C 156.261719 55.476562 155.363281 53.980469 154.390625 52.410156 C 152.445312 49.339844 150.351562 45.972656 148.628906 42.15625 C 147.730469 40.210938 147.058594 38.1875 146.535156 36.019531 C 146.011719 33.921875 145.785156 31.753906 145.710938 29.582031 C 145.636719 25.316406 146.382812 21.199219 147.730469 17.457031 C 149.078125 13.714844 150.800781 10.199219 152.96875 6.980469 C 154.015625 5.40625 155.140625 3.835938 156.410156 2.414062 L 156.859375 1.890625 C 157.085938 1.664062 157.234375 1.441406 157.460938 1.289062 C 157.910156 0.917969 158.355469 0.691406 158.804688 0.46875 C 159.253906 0.242188 159.855469 0.167969 160.378906 0.167969 C 160.675781 0.167969 160.902344 0.316406 161.125 0.46875 C 161.199219 0.84375 161.277344 1.066406 161.351562 1.289062 Z M 161.351562 1.289062 " fill-opacity="1" fill-rule="nonzero"/><path fill="#8047f8" d="M 202.28125 47.46875 C 202.058594 47.167969 201.757812 47.167969 201.609375 47.246094 C 201.382812 47.320312 201.160156 47.542969 201.011719 47.695312 C 200.859375 47.917969 200.710938 48.144531 200.636719 48.367188 C 200.5625 48.441406 200.5625 48.589844 200.5625 48.667969 L 200.410156 49.117188 C 200.039062 50.3125 199.738281 51.4375 199.511719 52.632812 C 198.988281 54.953125 198.691406 57.273438 198.617188 59.445312 C 198.539062 61.613281 198.765625 63.710938 199.289062 65.582031 C 199.589844 66.480469 199.886719 67.378906 200.261719 68.199219 C 200.636719 69.023438 201.160156 69.773438 201.683594 70.59375 C 202.207031 71.417969 202.878906 72.242188 203.554688 73.066406 L 205.800781 75.835938 C 206.546875 76.808594 207.445312 77.855469 208.195312 79.050781 C 208.941406 80.175781 209.691406 81.371094 210.4375 82.644531 C 211.785156 85.191406 212.984375 87.882812 213.65625 90.878906 C 214.40625 93.871094 214.628906 97.089844 214.253906 100.382812 C 214.03125 101.953125 213.730469 103.527344 213.355469 105.023438 C 212.90625 106.519531 212.382812 107.867188 211.859375 109.214844 C 210.738281 111.832031 209.316406 114.230469 207.96875 116.398438 C 206.546875 118.570312 205.199219 120.589844 203.855469 122.460938 C 203.179688 123.433594 202.582031 124.332031 201.984375 125.304688 C 201.382812 126.203125 200.859375 127.101562 200.335938 128.074219 C 199.886719 128.972656 199.363281 129.871094 198.988281 130.84375 C 198.617188 131.742188 198.242188 132.714844 198.015625 133.613281 C 197.566406 135.410156 197.34375 137.429688 197.566406 139.375 C 197.644531 140.347656 197.867188 141.320312 198.167969 142.292969 C 198.464844 143.269531 198.914062 144.164062 199.511719 145.0625 C 199.664062 145.289062 199.8125 145.4375 199.960938 145.664062 C 200.113281 145.886719 200.335938 146.035156 200.484375 146.261719 C 200.785156 146.636719 201.460938 147.085938 201.90625 147.609375 C 202.355469 148.132812 202.804688 148.730469 203.03125 149.40625 C 203.179688 149.777344 203.253906 150.152344 203.179688 150.527344 C 203.105469 150.902344 202.804688 151.203125 202.507812 151.351562 C 202.65625 151.050781 202.730469 150.753906 202.582031 150.527344 C 202.507812 150.304688 202.355469 150.152344 202.132812 149.929688 C 201.683594 149.628906 201.234375 149.40625 200.710938 149.179688 C 200.1875 148.957031 199.738281 148.957031 198.988281 148.65625 C 198.617188 148.582031 198.316406 148.433594 198.015625 148.28125 C 197.71875 148.132812 197.34375 147.984375 197.042969 147.757812 C 194.5 146.335938 192.480469 143.941406 191.207031 141.320312 C 190.535156 139.976562 190.085938 138.554688 189.710938 137.128906 C 189.335938 135.707031 189.1875 134.210938 189.1875 132.640625 C 189.1875 131.070312 189.335938 129.644531 189.5625 128.222656 C 189.785156 126.800781 190.085938 125.378906 190.535156 124.035156 C 190.984375 122.6875 191.433594 121.414062 191.957031 120.140625 C 192.480469 118.867188 193.003906 117.671875 193.601562 116.550781 C 194.722656 114.230469 195.921875 112.058594 196.96875 110.039062 C 199.066406 105.921875 200.636719 102.179688 201.011719 98.886719 C 201.382812 95.667969 200.636719 92.074219 199.066406 88.332031 C 198.242188 86.460938 197.34375 84.742188 196.144531 82.644531 C 194.949219 80.550781 193.527344 78.304688 192.40625 75.535156 C 191.804688 74.1875 191.355469 72.691406 191.058594 71.121094 C 190.683594 69.621094 190.609375 68.050781 190.609375 66.554688 C 190.683594 63.558594 191.28125 60.714844 192.328125 58.097656 C 193.378906 55.550781 194.722656 53.230469 196.296875 51.136719 C 197.117188 50.089844 197.941406 49.117188 198.839844 48.21875 L 199.214844 47.84375 C 199.363281 47.695312 199.511719 47.542969 199.664062 47.46875 C 199.960938 47.246094 200.335938 47.09375 200.636719 46.945312 C 201.011719 46.871094 201.382812 46.796875 201.757812 46.796875 C 201.984375 46.871094 202.132812 46.945312 202.28125 47.09375 C 202.207031 47.167969 202.207031 47.320312 202.28125 47.46875 Z M 202.28125 47.46875 " fill-opacity="1" fill-rule="nonzero"/><path fill="#8047f8" d="M 118.773438 90.503906 C 118.621094 90.355469 118.472656 90.429688 118.398438 90.503906 C 118.324219 90.578125 118.25 90.726562 118.171875 90.878906 C 118.097656 91.027344 118.097656 91.175781 118.023438 91.253906 C 118.023438 91.328125 118.023438 91.402344 118.023438 91.402344 C 118.023438 91.476562 118.023438 91.550781 118.023438 91.699219 C 117.949219 92.449219 117.875 93.199219 117.800781 93.871094 C 117.726562 95.292969 117.726562 96.640625 117.875 97.839844 C 118.023438 99.035156 118.324219 100.082031 118.773438 100.90625 C 118.996094 101.28125 119.222656 101.730469 119.445312 102.03125 C 119.671875 102.328125 119.96875 102.628906 120.269531 103.003906 C 120.941406 103.675781 121.765625 104.574219 122.738281 105.695312 C 123.710938 106.820312 124.910156 108.316406 125.804688 109.886719 C 126.703125 111.535156 127.527344 113.332031 128.050781 115.277344 C 128.574219 117.296875 128.726562 119.542969 128.5 121.714844 C 128.351562 122.835938 128.125 123.882812 127.902344 124.855469 C 127.601562 125.828125 127.226562 126.726562 126.855469 127.625 C 126.105469 129.347656 125.207031 130.84375 124.308594 132.117188 C 122.515625 134.734375 120.867188 136.605469 119.59375 138.402344 C 118.324219 140.199219 117.425781 141.621094 117.199219 143.792969 C 117.125 144.316406 117.125 144.839844 117.199219 145.363281 C 117.277344 145.886719 117.351562 146.410156 117.574219 146.933594 C 117.648438 147.160156 117.800781 147.460938 117.949219 147.757812 C 118.023438 147.984375 118.472656 148.355469 118.699219 148.730469 C 118.921875 149.105469 119.222656 149.554688 119.296875 150.003906 C 119.371094 150.226562 119.371094 150.527344 119.296875 150.828125 C 119.222656 151.125 118.996094 151.277344 118.773438 151.277344 C 118.847656 151.050781 118.847656 150.902344 118.699219 150.828125 C 118.621094 150.753906 118.472656 150.675781 118.324219 150.601562 C 118.023438 150.527344 117.726562 150.453125 117.425781 150.378906 C 117.125 150.304688 116.902344 150.378906 116.378906 150.226562 C 115.929688 150.152344 115.480469 149.929688 115.03125 149.777344 C 113.234375 149.03125 111.8125 147.535156 110.839844 145.8125 C 109.867188 144.089844 109.269531 142.21875 109.121094 140.125 C 109.042969 139.078125 109.121094 138.105469 109.195312 137.207031 C 109.269531 136.234375 109.492188 135.335938 109.71875 134.4375 C 110.617188 130.917969 112.113281 128 113.160156 125.679688 C 114.28125 123.359375 114.957031 121.414062 115.03125 120.140625 C 115.105469 119.542969 115.105469 118.867188 114.957031 118.121094 C 114.882812 117.371094 114.582031 116.472656 114.28125 115.5 C 114.132812 115.050781 113.910156 114.527344 113.683594 114.003906 C 113.460938 113.554688 113.234375 112.957031 112.859375 112.359375 C 112.261719 111.085938 111.4375 109.664062 110.765625 107.792969 C 110.464844 106.894531 110.167969 105.847656 109.941406 104.796875 C 109.792969 103.75 109.71875 102.703125 109.792969 101.730469 C 109.941406 99.710938 110.542969 97.914062 111.289062 96.339844 C 112.113281 94.769531 113.085938 93.421875 114.28125 92.226562 C 114.882812 91.625 115.480469 91.101562 116.078125 90.652344 C 116.152344 90.578125 116.226562 90.578125 116.304688 90.429688 C 116.453125 90.355469 116.527344 90.277344 116.675781 90.203125 C 116.902344 90.054688 117.125 89.980469 117.351562 89.90625 C 117.574219 89.828125 117.875 89.828125 118.097656 89.90625 C 118.699219 89.980469 118.847656 90.277344 118.773438 90.503906 Z M 118.773438 90.503906 " fill-opacity="1" fill-rule="nonzero"/></svg>